. 
 
http://www.torrenting.com          :     Once & For all ;)


               www . Torrenting . Com 

(((((((((((((= Enjoy No RAR releases =))))))))))))))))))))


...................................NFO:....................................

.[IMG]http://img838.imageshack.us/img838/5407/horridhenrythemovie.jpg[/IMG]


[color=blue][size=4][b]Horrid.Henry.The.Movie.2011.DVDRip.XVID.AC3.HQ.Hive-CM8[/b][/size][/color]


[b]Thx Hive

CM8 Doing It Right The First Time :D

Source: DVD-R Legend-RG
thx

Encode:
Dvd had great quality, was already more than bright, so just sharpness,rgb and denoise.
got very nice
enjoy

Video: 720x384 @bitrate 1800 2pass
Audio: English AC3 5.1 @448
Sample: yes included[/b]


[url]http://www.imdb.com/title/tt1684555/[/url]


General
Complete name                  : Horrid.Henry.The.Movie.2011.DVDRip.XVID.AC3.HQ.Hive-CM8.avi
Format                         : AVI
Format/Info                    : Audio Video Interleave
File size                      : 1.40 GiB
Duration                       : 1h 29mn
Overall bit rate               : 2 252 Kbps
Writing application            : Nandub v1.0rc2
Writing library                : Nandub build 1853/release

Video
ID                             : 0
Format                         : MPEG-4 Visual
Format profile                 : Advanced Simple@L5
Format settings, BVOP          : 2
Format settings, QPel          : Yes
Format settings, GMC           : No warppoints
Format settings, Matrix        : Default (H.263)
Muxing mode                    : Packed bitstream
Codec ID                       : XVID
Codec ID/Hint                  : XviD
Duration                       : 1h 29mn
Bit rate                       : 1 794 Kbps
Width                          : 720 pixels
Height                         : 384 pixels
Display aspect ratio           : 1.875
Frame rate                     : 25.000 fps
Color space                    : YUV
Chroma subsampling             : 4:2:0
Bit depth                      : 8 bits
Scan type                      : Progressive
Compression mode               : Lossy
Bits/(Pixel*Frame)             : 0.260
Stream size                    : 1.12 GiB (80%)
Writing library                : XviD 1.2.1 (UTC 2008-12-04)

Audio
ID                             : 1
Format                         : AC-3
Format/Info                    : Audio Coding 3
Mode extension                 : CM (complete main)
Codec ID                       : 2000
Duration                       : 1h 29mn
Bit rate mode                  : Constant
Bit rate                       : 448 Kbps
Channel(s)                     : 6 channels
Channel positions              : Front: L C R, Side: L R, LFE
Sampling rate                  : 48.0 KHz
Bit depth                      : 16 bits
Compression mode               : Lossy
Stream size                    : 285 MiB (20%)
Alignment                      : Split accross interleaves
Interleave, duration           : 40 ms (1.00 video frame)
Interleave, preload duration   : 500 ms

Plot:

When Henry fails yet again to hand in his homework for the umpteenth time, 
he has no idea that this will set off a chain of events which will see him forming 
an unlikely alliance with Moody Margaret, the infuriating girl next door, 
and his irritating little brother Perfect Peter, outwitting corrupt School Inspectors 
and toppling an evil Headmaster, winning a talent contest and facing his ultimate 
nemesis with no way out - all because he is trying to save the very school which he has always professed to hate! 

Cast:

Anjelica Huston	... 	Miss Battleaxe
Richard E. Grant	... 	Vic Van Wrinkle
Parminder Nagra	... 	Miss Lovely
Tyger Drew-Honey	... 	Stuck-up Steve
Noel Fielding	... 	Ed Banger


[img]http://img210.imageshack.us/img210/9793/55760657.png[/img]
[img]http://img259.imageshack.us/img259/2217/hoho.png[/img]
[img]http://img217.imageshack.us/img217/7204/hohohou.png[/img]
[img]http://img849.imageshack.us/img849/421/hohohoho.png[/img]
[img]http://img7.imageshack.us/img7/4703/hohohohoho.png[/img]
[img]http://img705.imageshack.us/img705/6033/hohohohohoho.png[/img]
[img]http://img411.imageshack.us/img411/5379/hohohohohohohhoo.png[/img]
[img]http://img28.imageshack.us/img28/3085/hohohohohohoho.png[/img]





Greetz

ViSiON,SPK,SiC,SANTi,3LT0N,FUSiON,YanKeeS,MAGNET,THC,T0XiC,LKRG,Feel-Free,FANTASIA-PLAY,FANTASIA-M,FLAWL3SS,
WBZ,ZMG,BHRG,NOVA,D2U,Vik,Rapeseed,SAFC,goldadvance,MEMORY100,KaN1vE,Unevano,Pinnz,Wayne
Mr Hive,and most P2P groups
Great Work Guys :D

IDIOT OF THE WEEK GOES TO hotshot2k3 YOU ARE RETARDED

LOOKING FOR ANYTHING YOU WANT TO LOOK AND SOUND BETTER

CM8@hushmail.com